<?xml version="1.0" standalone="no"?>
<!DOCTYPE svg PUBLIC "-//W3C//DTD SVG 20010904//EN"
 "http://www.w3.org/TR/2001/REC-SVG-20010904/DTD/svg10.dtd">
<svg version="1.0" xmlns="http://www.w3.org/2000/svg"
 width="260.000000pt" height="260.000000pt" viewBox="0 0 260.000000 260.000000"
 preserveAspectRatio="xMidYMid meet">
<metadata>
Created by potrace 1.14, written by Peter Selinger 2001-2017
</metadata>
<g transform="translate(0.000000,260.000000) scale(0.100000,-0.100000)"
fill="#000000" stroke="none">
<path d="M640 1528 c-79 -178 -151 -341 -161 -363 -10 -22 -50 -112 -88 -200
l-70 -160 141 -3 c78 -1 147 -1 153 2 7 2 29 47 51 100 l39 96 221 -1 222 -1
40 -96 40 -97 156 -3 156 -3 -13 33 c-8 18 -24 56 -37 83 -12 28 -28 64 -35
80 -18 41 -91 206 -124 280 -15 33 -79 176 -142 318 l-114 257 -146 0 -147 0
-142 -322z m320 -53 c32 -86 54 -143 79 -202 l21 -53 -134 0 -135 0 67 165
c37 90 69 161 73 157 3 -4 16 -34 29 -67z"/>
<path d="M1130 1846 c0 -3 12 -31 26 -63 52 -119 55 -125 265 -620 l154 -363
149 3 149 2 217 506 c119 279 220 514 223 523 6 14 -9 16 -141 16 l-147 0 -64
-152 c-140 -334 -212 -502 -220 -515 -5 -10 -32 44 -85 172 -42 103 -81 196
-86 208 -5 12 -33 81 -63 152 l-53 130 -162 3 c-89 1 -162 0 -162 -2z"/>
</g>
</svg>
